<svg width="72" height="70" viewBox="0 0 72 70" fill="none" xmlns="http://www.w3.org/2000/svg">
<path d="M18 64.375C18 65.0425 17.8021 65.6951 17.4312 66.2501C17.0604 66.8051 16.5333 67.2377 15.9166 67.4931C15.2999 67.7486 14.6213 67.8154 13.9666 67.6852C13.3119 67.5549 12.7105 67.2335 12.2385 66.7615C11.7665 66.2895 11.4451 65.6881 11.3149 65.0335C11.1846 64.3788 11.2515 63.7002 11.5069 63.0835C11.7624 62.4668 12.1949 61.9397 12.75 61.5688C13.305 61.198 13.9575 61 14.625 61C15.5201 61 16.3786 61.3556 17.0115 61.9885C17.6444 62.6215 18 63.4799 18 64.375ZM23.625 52C22.9575 52 22.305 52.198 21.75 52.5688C21.1949 52.9397 20.7624 53.4668 20.5069 54.0835C20.2515 54.7002 20.1846 55.3788 20.3149 56.0335C20.4451 56.6881 20.7665 57.2895 21.2385 57.7615C21.7105 58.2335 22.3119 58.5549 22.9666 58.6852C23.6213 58.8154 24.2999 58.7486 24.9166 58.4931C25.5333 58.2377 26.0604 57.8051 26.4312 57.2501C26.8021 56.6951 27 56.0425 27 55.375C27 54.4799 26.6444 53.6215 26.0115 52.9885C25.3786 52.3556 24.5201 52 23.625 52ZM5.625 52C4.95749 52 4.30497 52.198 3.74995 52.5688C3.19494 52.9397 2.76235 53.4668 2.50691 54.0835C2.25146 54.7002 2.18463 55.3788 2.31485 56.0335C2.44508 56.6881 2.76651 57.2895 3.23852 57.7615C3.71052 58.2335 4.31189 58.5549 4.96657 58.6852C5.62126 58.8154 6.29986 58.7486 6.91656 58.4931C7.53326 58.2377 8.06036 57.8051 8.43121 57.2501C8.80206 56.6951 9 56.0425 9 55.375C9 54.4799 8.64442 53.6215 8.01149 52.9885C7.37855 52.3556 6.52011 52 5.625 52ZM14.625 43C13.9575 43 13.305 43.198 12.75 43.5688C12.1949 43.9397 11.7624 44.4668 11.5069 45.0835C11.2515 45.7002 11.1846 46.3788 11.3149 47.0335C11.4451 47.6881 11.7665 48.2895 12.2385 48.7615C12.7105 49.2335 13.3119 49.5549 13.9666 49.6852C14.6213 49.8154 15.2999 49.7486 15.9166 49.4931C16.5333 49.2377 17.0604 48.8051 17.4312 48.2501C17.8021 47.6951 18 47.0425 18 46.375C18 45.4799 17.6444 44.6215 17.0115 43.9885C16.3786 43.3556 15.5201 43 14.625 43ZM69.75 7.00002H61.6809C61.0898 6.99813 60.5041 7.11377 59.958 7.34022C59.412 7.56667 58.9163 7.8994 58.5 8.31908L50.6644 16.1519L15.0131 22.241C14.1972 22.3765 13.4344 22.7342 12.8085 23.275C12.1826 23.8157 11.7178 24.5185 11.4653 25.3061C11.2127 26.0937 11.1821 26.9357 11.3768 27.7396C11.5716 28.5434 11.9841 29.2781 12.5691 29.8628L40.1316 57.4253C40.7158 58.0094 41.4496 58.4214 42.2525 58.6161C43.0554 58.8108 43.8963 58.7807 44.6833 58.5292C45.4702 58.2776 46.1727 57.8143 46.7137 57.1899C47.2548 56.5656 47.6135 55.8044 47.7506 54.9897L53.8481 19.3356L61.6809 11.5H69.75C70.3467 11.5 70.919 11.263 71.341 10.841C71.7629 10.4191 72 9.84676 72 9.25002C72 8.65329 71.7629 8.08099 71.341 7.65903C70.919 7.23708 70.3467 7.00002 69.75 7.00002Z" fill="white"/>
</svg>
