<svg width="72" height="72" viewBox="0 0 72 72" fill="none" xmlns="http://www.w3.org/2000/svg">
<g clip-path="url(#clip0_142_991)">
<path fill-rule="evenodd" clip-rule="evenodd" d="M30 48C30.7956 48 31.5587 48.3161 32.1213 48.8787C32.6839 49.4413 33 50.2044 33 51V54.516C32.9987 56.9017 32.0502 59.1893 30.363 60.876L29.121 62.121C28.5552 62.6675 27.7974 62.9699 27.0108 62.963C26.2242 62.9562 25.4718 62.6407 24.9155 62.0845C24.3593 61.5282 24.0438 60.7758 24.037 59.9892C24.0301 59.2026 24.3325 58.4448 24.879 57.879L26.121 56.637C26.6836 56.0745 26.9998 55.3116 27 54.516V51C27 50.2044 27.3161 49.4413 27.8787 48.8787C28.4413 48.3161 29.2044 48 30 48ZM42 48C42.7348 48.0001 43.444 48.2699 43.9931 48.7581C44.5422 49.2464 44.893 49.9192 44.979 50.649L45 51V54.516C44.9999 55.1754 45.2171 55.8164 45.618 56.34L45.879 56.637L47.121 57.879C47.659 58.4189 47.9714 59.1433 47.9947 59.9052C48.0179 60.667 47.7504 61.4091 47.2463 61.9808C46.7422 62.5525 46.0393 62.9109 45.2806 62.9832C44.5218 63.0555 43.764 62.8362 43.161 62.37L42.879 62.121L41.637 60.879C40.0947 59.3365 39.1651 57.2865 39.021 55.11L39 54.516V51C39 50.2044 39.3161 49.4413 39.8787 48.8787C40.4413 48.3161 41.2044 48 42 48ZM18 48C18.7348 48.0001 19.444 48.2699 19.9931 48.7581C20.5422 49.2464 20.893 49.9192 20.979 50.649L21 51V52.839C20.9995 54.0161 20.6529 55.167 20.0032 56.1485C19.3534 57.13 18.4294 57.8988 17.346 58.359L16.896 58.53L12.948 59.847C12.2226 60.086 11.4334 60.0394 10.7412 59.7166C10.049 59.3938 9.50597 58.8192 9.22284 58.1098C8.93972 57.4005 8.9378 56.6098 9.21748 55.8991C9.49716 55.1884 10.0374 54.6111 10.728 54.285L11.052 54.153L15 52.839V51C15 50.2044 15.3161 49.4413 15.8787 48.8787C16.4413 48.3161 17.2044 48 18 48ZM54 48C54.7348 48.0001 55.444 48.2699 55.9931 48.7581C56.5422 49.2464 56.893 49.9192 56.979 50.649L57 51V52.839L60.948 54.153C61.676 54.3936 62.2842 54.9038 62.6478 55.5788C63.0114 56.2538 63.1028 57.0424 62.9031 57.7827C62.7035 58.523 62.228 59.1587 61.5742 59.5593C60.9205 59.96 60.1382 60.0951 59.388 59.937L59.052 59.847L55.104 58.527C53.9872 58.1554 53.0043 57.4635 52.2778 56.5375C51.5513 55.6114 51.1132 54.4922 51.018 53.319L51 52.839V51C51 50.2044 51.3161 49.4413 51.8787 48.8787C52.4413 48.3161 53.2044 48 54 48ZM54 9C56.2956 8.99987 58.5045 9.87698 60.1748 11.4519C61.845 13.0267 62.8503 15.1803 62.985 17.472L63 18V36C63.0001 38.2956 62.123 40.5045 60.5481 42.1748C58.9733 43.845 56.8197 44.8503 54.528 44.985L54 45H18C15.7044 45.0001 13.4955 44.123 11.8252 42.5481C10.155 40.9733 9.14968 38.8197 9.015 36.528L9 36V18C8.99987 15.7044 9.87698 13.4955 11.4519 11.8252C13.0267 10.155 15.1803 9.14968 17.472 9.015L18 9H54ZM54 33H18C17.2044 33 16.4413 33.3161 15.8787 33.8787C15.3161 34.4413 15 35.2044 15 36V39H57V36C57 35.2044 56.6839 34.4413 56.1213 33.8787C55.5587 33.3161 54.7956 33 54 33ZM51 18C50.2044 18 49.4413 18.3161 48.8787 18.8787C48.3161 19.4413 48 20.2044 48 21C48 21.7956 48.3161 22.5587 48.8787 23.1213C49.4413 23.6839 50.2044 24 51 24C51.7956 24 52.5587 23.6839 53.1213 23.1213C53.6839 22.5587 54 21.7956 54 21C54 20.2044 53.6839 19.4413 53.1213 18.8787C52.5587 18.3161 51.7956 18 51 18Z" fill="white"/>
</g>
<defs>
<clipPath id="clip0_142_991">
<rect width="72" height="72" fill="white"/>
</clipPath>
</defs>
</svg>
