<svg width="90" height="72" viewBox="0 0 90 72" fill="none" xmlns="http://www.w3.org/2000/svg">
<path d="M13.5 9C13.5 6.51094 15.5109 4.5 18 4.5H22.5C24.9891 4.5 27 6.51094 27 9V63C27 65.4891 24.9891 67.5 22.5 67.5H18C15.5109 67.5 13.5 65.4891 13.5 63V54H9C6.51094 54 4.5 51.9891 4.5 49.5V40.5C2.01094 40.5 0 38.4891 0 36C0 33.5109 2.01094 31.5 4.5 31.5V22.5C4.5 20.0109 6.51094 18 9 18H13.5V9ZM76.5 9V18H81C83.4891 18 85.5 20.0109 85.5 22.5V31.5C87.9891 31.5 90 33.5109 90 36C90 38.4891 87.9891 40.5 85.5 40.5V49.5C85.5 51.9891 83.4891 54 81 54H76.5V63C76.5 65.4891 74.4891 67.5 72 67.5H67.5C65.0109 67.5 63 65.4891 63 63V9C63 6.51094 65.0109 4.5 67.5 4.5H72C74.4891 4.5 76.5 6.51094 76.5 9ZM58.5 31.5V40.5H31.5V31.5H58.5Z" fill="white"/>
</svg>
