<svg width="72" height="72" viewBox="0 0 72 72" fill="none" xmlns="http://www.w3.org/2000/svg">
<path d="M41.16 65.52C39.48 65.82 37.77 66 36 66C19.5 66 6 52.5 6 36C6 19.5 19.5 6 36 6C52.5 6 66 19.5 66 36C66 37.77 65.82 39.48 65.52 41.16C62.9068 39.7351 59.9764 38.9922 57 39C53.22 39 49.71 40.17 46.8 42.18L37.5 36.6V21H33V39L43.29 45.33C40.5107 48.5819 38.9887 52.7222 39 57C39 60.09 39.78 63 41.16 65.52ZM63.36 46.38L57 52.77L50.64 46.41L46.41 50.64L52.77 57L46.41 63.36L50.64 67.62L57 61.23L63.36 67.62L67.62 63.36L61.23 57L67.62 50.64L63.36 46.38Z" fill="white"/>
</svg>
