<svg width="72" height="72" viewBox="0 0 72 72" fill="none" xmlns="http://www.w3.org/2000/svg">
<path d="M36 66L34.5 36L24 33H3V27H21L42 12L45.9 16.575L33.45 25.5H42L65.4 12L69 16.2L43.5 36L42 66H36ZM18 24C16.35 24 14.937 23.412 13.761 22.236C12.585 21.06 11.998 19.648 12 18C12 16.35 12.588 14.937 13.764 13.761C14.94 12.585 16.352 11.998 18 12C19.65 12 21.063 12.588 22.239 13.764C23.415 14.94 24.002 16.352 24 18C24 19.65 23.412 21.063 22.236 22.239C21.06 23.415 19.648 24.002 18 24Z" fill="white"/>
</svg>
