<svg width="72" height="72" viewBox="0 0 72 72" fill="none" xmlns="http://www.w3.org/2000/svg">
<path d="M58.5 9H13.5C12.3065 9 11.1619 9.47411 10.318 10.318C9.47411 11.1619 9 12.3065 9 13.5V63C9 63.5967 9.23705 64.169 9.65901 64.591C10.081 65.0129 10.6533 65.25 11.25 65.25C11.8467 65.25 12.419 65.0129 12.841 64.591C13.2629 64.169 13.5 63.5967 13.5 63V58.5H33.75V63C33.75 63.5967 33.9871 64.169 34.409 64.591C34.831 65.0129 35.4033 65.25 36 65.25C36.5967 65.25 37.169 65.0129 37.591 64.591C38.0129 64.169 38.25 63.5967 38.25 63V58.5H58.5V63C58.5 63.5967 58.7371 64.169 59.159 64.591C59.581 65.0129 60.1533 65.25 60.75 65.25C61.3467 65.25 61.919 65.0129 62.341 64.591C62.7629 64.169 63 63.5967 63 63V13.5C63 12.3065 62.5259 11.1619 61.682 10.318C60.8381 9.47411 59.6935 9 58.5 9ZM27 31.5H15.75C15.1533 31.5 14.581 31.2629 14.159 30.841C13.7371 30.419 13.5 29.8467 13.5 29.25C13.5 28.6533 13.7371 28.081 14.159 27.659C14.581 27.2371 15.1533 27 15.75 27H27C27.5967 27 28.169 27.2371 28.591 27.659C29.0129 28.081 29.25 28.6533 29.25 29.25C29.25 29.8467 29.0129 30.419 28.591 30.841C28.169 31.2629 27.5967 31.5 27 31.5ZM27 22.5H15.75C15.1533 22.5 14.581 22.2629 14.159 21.841C13.7371 21.419 13.5 20.8467 13.5 20.25C13.5 19.6533 13.7371 19.081 14.159 18.659C14.581 18.2371 15.1533 18 15.75 18H27C27.5967 18 28.169 18.2371 28.591 18.659C29.0129 19.081 29.25 19.6533 29.25 20.25C29.25 20.8467 29.0129 21.419 28.591 21.841C28.169 22.2629 27.5967 22.5 27 22.5ZM38.25 51.75C38.25 52.3467 38.0129 52.919 37.591 53.341C37.169 53.7629 36.5967 54 36 54C35.4033 54 34.831 53.7629 34.409 53.341C33.9871 52.919 33.75 52.3467 33.75 51.75V15.75C33.75 15.1533 33.9871 14.581 34.409 14.159C34.831 13.7371 35.4033 13.5 36 13.5C36.5967 13.5 37.169 13.7371 37.591 14.159C38.0129 14.581 38.25 15.1533 38.25 15.75V51.75ZM56.25 31.5H45C44.4033 31.5 43.831 31.2629 43.409 30.841C42.9871 30.419 42.75 29.8467 42.75 29.25C42.75 28.6533 42.9871 28.081 43.409 27.659C43.831 27.2371 44.4033 27 45 27H56.25C56.8467 27 57.419 27.2371 57.841 27.659C58.2629 28.081 58.5 28.6533 58.5 29.25C58.5 29.8467 58.2629 30.419 57.841 30.841C57.419 31.2629 56.8467 31.5 56.25 31.5ZM56.25 22.5H45C44.4033 22.5 43.831 22.2629 43.409 21.841C42.9871 21.419 42.75 20.8467 42.75 20.25C42.75 19.6533 42.9871 19.081 43.409 18.659C43.831 18.2371 44.4033 18 45 18H56.25C56.8467 18 57.419 18.2371 57.841 18.659C58.2629 19.081 58.5 19.6533 58.5 20.25C58.5 20.8467 58.2629 21.419 57.841 21.841C57.419 22.2629 56.8467 22.5 56.25 22.5Z" fill="white"/>
</svg>
