<?xml version="1.0" encoding="utf-8"?>
<!-- Generator: Adobe Illustrator 27.7.0, SVG Export Plug-In . SVG Version: 6.00 Build 0)  -->
<svg version="1.1" id="Capa_1" xmlns="http://www.w3.org/2000/svg" xmlns:xlink="http://www.w3.org/1999/xlink" x="0px" y="0px"
	 viewBox="0 0 742 200" style="enable-background:new 0 0 742 200;" xml:space="preserve">
<style type="text/css">
	
		.st0{fill:url(#SVGID_1_);stroke:url(#SVGID_00000064335966772622848200000005094642583871596450_);stroke-width:2;stroke-miterlimit:10;}
	.st1{fill:#FFE600;}
	.st2{enable-background:new    ;}
	.st3{fill:#FFFFFF;}
</style>
<linearGradient id="SVGID_1_" gradientUnits="userSpaceOnUse" x1="42.762" y1="36.5896" x2="84.8651" y2="112.8363" gradientTransform="matrix(1 0 0 -1 0 202)">
	<stop  offset="0" style="stop-color:#131212"/>
	<stop  offset="0.5" style="stop-color:#333333"/>
	<stop  offset="1" style="stop-color:#6B6B6B"/>
</linearGradient>
<linearGradient id="SVGID_00000173160707365889062670000012393093453265247877_" gradientUnits="userSpaceOnUse" x1="73.3642" y1="10.6275" x2="73.3642" y2="111.98" gradientTransform="matrix(1 0 0 -1 0 202)">
	<stop  offset="0" style="stop-color:#6B6B6B"/>
	<stop  offset="1" style="stop-color:#131212"/>
</linearGradient>
<polygon style="fill:url(#SVGID_1_);stroke:url(#SVGID_00000173160707365889062670000012393093453265247877_);stroke-width:2;stroke-miterlimit:10;" points="
	50.99,91.02 116.69,91.02 29.59,187.88 "/>
<polygon class="st1" points="17.44,109 82.01,109 104.54,12.14 "/>
<g class="st2">
	<path class="st1" d="M141.45,114.65v-34.6h-15.27V68.16h45.41v11.89h-15.2v34.6H141.45z"/>
	<path class="st1" d="M173.48,114.65V68.16h14.93v16.96h16.42V68.16h14.93v46.49h-14.93V97.01h-16.42v17.64H173.48z"/>
	<path class="st1" d="M248.01,115.46c-4.87,0-9.02-0.73-12.47-2.2c-3.45-1.46-6.09-3.65-7.94-6.55c-1.85-2.91-2.77-6.5-2.77-10.78
		V68.16h14.93v27.57c0,2.48,0.68,4.53,2.03,6.15c1.35,1.62,3.4,2.43,6.15,2.43c2.75,0,4.81-0.81,6.18-2.43
		c1.37-1.62,2.06-3.67,2.06-6.15V68.16h14.93v27.77c0,4.28-0.91,7.87-2.74,10.78c-1.82,2.91-4.46,5.09-7.91,6.55
		C257.04,114.73,252.88,115.46,248.01,115.46z"/>
	<path class="st1" d="M276.19,114.65V68.16h12.7l14.46,16.69c0.41,0.45,0.95,1.1,1.62,1.96c0.68,0.86,1.36,1.72,2.06,2.6
		c0.7,0.88,1.23,1.59,1.59,2.13l0.34-0.13c-0.05-1.26-0.07-2.51-0.07-3.75c0-1.24,0-2.17,0-2.8V68.16h13.58v46.49h-12.64
		l-16.29-18.58c-0.77-0.9-1.42-1.72-1.96-2.47c-0.54-0.74-1.06-1.45-1.55-2.13l-0.34,0.13c0.04,0.86,0.07,1.71,0.07,2.57
		c0,0.86,0,1.49,0,1.89v18.58H276.19z"/>
	<path class="st1" d="M327.55,114.65V68.16h20.14c5.32,0,9.78,0.83,13.38,2.5c3.6,1.67,6.34,4.21,8.21,7.64
		c1.87,3.42,2.8,7.79,2.8,13.11c0,5.27-0.94,9.63-2.8,13.08c-1.87,3.45-4.61,6-8.21,7.67c-3.6,1.67-8.06,2.5-13.38,2.5H327.55z
		 M342.49,103.5h4.93c1.62,0,3.03-0.22,4.22-0.68c1.19-0.45,2.17-1.1,2.94-1.96c0.77-0.85,1.33-1.91,1.69-3.18
		c0.36-1.26,0.54-2.68,0.54-4.26v-4.05c0-1.58-0.18-3-0.54-4.26c-0.36-1.26-0.92-2.32-1.69-3.18c-0.77-0.86-1.75-1.51-2.94-1.96
		c-1.19-0.45-2.6-0.68-4.22-0.68h-4.93V103.5z"/>
	<path class="st1" d="M375.4,114.65V68.16h40.21v11.15h-25.27v6.42h21.62V96.4h-21.62v7.1h25.75v11.15H375.4z"/>
	<path class="st1" d="M419.05,114.65V68.16h29.13c3.47,0,6.36,0.7,8.68,2.09c2.32,1.4,4.06,3.22,5.24,5.47s1.76,4.69,1.76,7.3
		c0,2.97-0.7,5.62-2.1,7.94s-3.29,4.18-5.68,5.58l9.12,18.11h-16.76l-7.1-15.61h-7.37v15.61H419.05z M433.98,88.7h10.47
		c1.17,0,2.16-0.46,2.97-1.39c0.81-0.92,1.22-2.15,1.22-3.68c0-0.95-0.18-1.78-0.54-2.5c-0.36-0.72-0.86-1.29-1.49-1.72
		c-0.63-0.43-1.35-0.64-2.16-0.64h-10.47V88.7z"/>
</g>
<g class="st2">
	<path class="st3" d="M472.84,114.65V68.16h37.57v11.15h-22.64v7.97h19.46v10.68h-19.46v16.69H472.84z"/>
	<path class="st3" d="M516.02,74.78v-9.12h13.45v9.12H516.02z M516.02,114.65V78.97h13.45v35.68H516.02z"/>
	<path class="st3" d="M551.77,115.46c-2.43,0-4.58-0.28-6.45-0.84c-1.87-0.56-3.32-1.54-4.36-2.94c-1.04-1.4-1.55-3.31-1.55-5.74
		V88.09h-5v-9.12h5.54l2.91-10.81h10v10.81h7.57v9.12h-7.57v13.58c0,1.53,0.25,2.69,0.74,3.48c0.5,0.79,1.51,1.18,3.04,1.18h3.78
		v7.91c-0.72,0.23-1.61,0.44-2.67,0.64c-1.06,0.2-2.12,0.35-3.18,0.44C553.51,115.42,552.58,115.46,551.77,115.46z"/>
	<path class="st3" d="M565.69,114.65V78.97h11.01l0.88,5.41h0.47c0.95-1.4,2.05-2.56,3.31-3.48c1.26-0.92,2.66-1.61,4.19-2.06
		c1.53-0.45,3.11-0.68,4.73-0.68c2.84,0,5.17,0.53,6.99,1.59c1.82,1.06,3.19,2.58,4.09,4.56c0.9,1.98,1.35,4.39,1.35,7.23v23.11
		h-13.45V93.16c0-0.77-0.1-1.45-0.3-2.06c-0.2-0.61-0.49-1.14-0.84-1.59c-0.36-0.45-0.82-0.8-1.39-1.05
		c-0.56-0.25-1.23-0.37-1.99-0.37c-1.13,0-2.11,0.26-2.94,0.78c-0.83,0.52-1.49,1.19-1.96,2.03c-0.47,0.83-0.71,1.77-0.71,2.8v20.95
		H565.69z"/>
	<path class="st3" d="M629.08,115.46c-4.28,0-7.99-0.67-11.12-1.99c-3.13-1.33-5.54-3.37-7.23-6.12s-2.53-6.26-2.53-10.54
		c0-4.19,0.83-7.66,2.5-10.41c1.67-2.75,4-4.81,6.99-6.18c3-1.37,6.52-2.06,10.58-2.06c4.28,0,7.92,0.67,10.91,1.99
		c3,1.33,5.28,3.37,6.86,6.12c1.58,2.75,2.37,6.26,2.37,10.54v2.3h-26.76c0,1.62,0.24,3.02,0.71,4.19c0.47,1.17,1.24,2.06,2.3,2.67
		s2.44,0.91,4.16,0.91c1.22,0,2.24-0.13,3.08-0.41c0.83-0.27,1.51-0.64,2.03-1.12c0.52-0.47,0.89-1.02,1.12-1.66
		s0.34-1.31,0.34-2.03h13.04c0,2.12-0.41,4.03-1.22,5.74s-2.03,3.17-3.65,4.36c-1.62,1.19-3.64,2.11-6.05,2.74
		C635.08,115.15,632.27,115.46,629.08,115.46z M621.71,92.76h13.11c0-0.95-0.14-1.79-0.41-2.53c-0.27-0.74-0.67-1.37-1.18-1.89
		c-0.52-0.52-1.15-0.91-1.89-1.18s-1.59-0.41-2.53-0.41c-1.49,0-2.73,0.25-3.72,0.74c-0.99,0.5-1.76,1.18-2.3,2.06
		C622.25,90.42,621.89,91.5,621.71,92.76z"/>
	<path class="st3" d="M670.43,115.46c-2.16,0-4.31-0.21-6.45-0.64s-4.1-1.1-5.88-2.03c-1.78-0.92-3.21-2.11-4.29-3.55
		c-1.08-1.44-1.62-3.2-1.62-5.27c0-0.14,0-0.28,0-0.44c0-0.16,0.02-0.33,0.07-0.51h12.5c-0.05,0.13-0.07,0.27-0.07,0.41
		s0,0.25,0,0.34c0.04,0.81,0.33,1.49,0.84,2.03c0.52,0.54,1.2,0.95,2.06,1.22c0.86,0.27,1.8,0.41,2.84,0.41
		c0.63,0,1.38-0.04,2.26-0.14c0.88-0.09,1.66-0.31,2.33-0.68c0.68-0.36,1.01-0.97,1.01-1.82c0-0.77-0.39-1.34-1.18-1.72
		c-0.79-0.38-1.82-0.7-3.11-0.95c-1.28-0.25-2.69-0.51-4.22-0.78c-1.67-0.27-3.34-0.62-5.03-1.05c-1.69-0.43-3.26-1.04-4.7-1.82
		c-1.44-0.79-2.6-1.83-3.48-3.14c-0.88-1.31-1.32-3-1.32-5.07c0-2.34,0.48-4.3,1.45-5.88c0.97-1.58,2.3-2.83,3.99-3.75
		c1.69-0.92,3.6-1.58,5.74-1.96c2.14-0.38,4.38-0.57,6.72-0.57c2.03,0,4.04,0.19,6.05,0.57c2,0.38,3.84,0.99,5.51,1.82
		c1.67,0.83,3,1.93,3.99,3.28c0.99,1.35,1.49,3,1.49,4.93c0,0.13,0,0.3,0,0.51c0,0.2-0.02,0.35-0.07,0.44H675.5v-0.54
		c0-0.68-0.24-1.23-0.71-1.66c-0.47-0.43-1.08-0.74-1.82-0.95c-0.74-0.2-1.5-0.3-2.26-0.3c-0.27,0-0.68,0.01-1.22,0.03
		c-0.54,0.02-1.09,0.1-1.66,0.24c-0.56,0.14-1.04,0.36-1.42,0.68c-0.38,0.32-0.57,0.77-0.57,1.35c0,0.54,0.26,0.98,0.78,1.32
		c0.52,0.34,1.22,0.61,2.09,0.81c0.88,0.2,1.86,0.42,2.94,0.64c1.71,0.32,3.56,0.62,5.54,0.91c1.98,0.29,3.86,0.79,5.64,1.49
		c1.78,0.7,3.23,1.76,4.36,3.18c1.12,1.42,1.69,3.41,1.69,5.98c0,2.43-0.5,4.47-1.49,6.12s-2.34,2.94-4.05,3.89
		c-1.71,0.95-3.68,1.62-5.91,2.03C675.2,115.26,672.87,115.46,670.43,115.46z"/>
	<path class="st3" d="M710.78,115.46c-2.16,0-4.31-0.21-6.45-0.64s-4.1-1.1-5.88-2.03c-1.78-0.92-3.21-2.11-4.29-3.55
		c-1.08-1.44-1.62-3.2-1.62-5.27c0-0.14,0-0.28,0-0.44c0-0.16,0.02-0.33,0.07-0.51h12.5c-0.05,0.13-0.07,0.27-0.07,0.41
		s0,0.25,0,0.34c0.04,0.81,0.33,1.49,0.84,2.03c0.52,0.54,1.2,0.95,2.06,1.22c0.86,0.27,1.8,0.41,2.84,0.41
		c0.63,0,1.38-0.04,2.26-0.14c0.88-0.09,1.66-0.31,2.33-0.68c0.68-0.36,1.01-0.97,1.01-1.82c0-0.77-0.39-1.34-1.18-1.72
		c-0.79-0.38-1.82-0.7-3.11-0.95c-1.28-0.25-2.69-0.51-4.22-0.78c-1.67-0.27-3.34-0.62-5.03-1.05c-1.69-0.43-3.26-1.04-4.7-1.82
		c-1.44-0.79-2.6-1.83-3.48-3.14c-0.88-1.31-1.32-3-1.32-5.07c0-2.34,0.48-4.3,1.45-5.88c0.97-1.58,2.3-2.83,3.99-3.75
		c1.69-0.92,3.6-1.58,5.74-1.96c2.14-0.38,4.38-0.57,6.72-0.57c2.03,0,4.04,0.19,6.05,0.57c2,0.38,3.84,0.99,5.51,1.82
		c1.67,0.83,3,1.93,3.99,3.28c0.99,1.35,1.49,3,1.49,4.93c0,0.13,0,0.3,0,0.51c0,0.2-0.02,0.35-0.07,0.44h-12.37v-0.54
		c0-0.68-0.24-1.23-0.71-1.66c-0.47-0.43-1.08-0.74-1.82-0.95c-0.74-0.2-1.5-0.3-2.26-0.3c-0.27,0-0.68,0.01-1.22,0.03
		c-0.54,0.02-1.09,0.1-1.66,0.24c-0.56,0.14-1.04,0.36-1.42,0.68c-0.38,0.32-0.57,0.77-0.57,1.35c0,0.54,0.26,0.98,0.78,1.32
		c0.52,0.34,1.22,0.61,2.09,0.81c0.88,0.2,1.86,0.42,2.94,0.64c1.71,0.32,3.56,0.62,5.54,0.91c1.98,0.29,3.86,0.79,5.64,1.49
		c1.78,0.7,3.23,1.76,4.36,3.18c1.12,1.42,1.69,3.41,1.69,5.98c0,2.43-0.5,4.47-1.49,6.12s-2.34,2.94-4.05,3.89
		c-1.71,0.95-3.68,1.62-5.91,2.03C715.54,115.26,713.21,115.46,710.78,115.46z"/>
</g>
</svg>
