<svg width="24" height="24" viewBox="0 0 24 24" fill="none" xmlns="http://www.w3.org/2000/svg">
<path d="M9.50102 11L9.64502 11.007C9.99149 11.0402 10.3156 11.1928 10.5619 11.4387C10.8082 11.6847 10.9613 12.0086 10.995 12.355L11 12.5L10.993 12.645C10.9594 12.9913 10.8064 13.3151 10.5603 13.561C10.3142 13.8069 9.99031 13.9596 9.64402 13.993L9.50102 14H6.00102V16H9.50102C11.201 16 12.618 14.788 12.935 13.181L12.965 13.001L19.001 13C19.712 13 20.389 12.851 21.001 12.584V17C21.001 17.6204 20.8087 18.2256 20.4505 18.7323C20.0923 19.2389 19.5859 19.622 19.001 19.829V21C19.001 21.2652 18.8957 21.5196 18.7081 21.7071C18.5206 21.8946 18.2662 22 18.001 22H6.00102C5.73581 22 5.48145 21.8946 5.29392 21.7071C5.10638 21.5196 5.00102 21.2652 5.00102 21V19.83C4.41595 19.623 3.90944 19.2397 3.55126 18.7329C3.19308 18.226 3.00084 17.6206 3.00102 17V13C3.00102 12.4696 3.21174 11.9609 3.58681 11.5858C3.96188 11.2107 4.47059 11 5.00102 11H9.50102ZM22.001 7.5V8L21.996 8.176C21.9529 8.90959 21.6421 9.60186 21.1225 10.1215C20.6029 10.6411 19.9106 10.9519 19.177 10.995L19.001 11H12.664C12.3953 10.4336 11.9794 9.94974 11.4597 9.59898C10.9401 9.24822 10.3358 9.04343 9.71002 9.006L9.50002 9H5.00002C4.2974 8.99891 3.60702 9.18384 2.99902 9.536L3.00102 6C3.00102 4.93913 3.42245 3.92172 4.1726 3.17157C4.92274 2.42143 5.94016 2 7.00102 2H16.501C17.9597 2 19.3587 2.57946 20.3901 3.61091C21.4216 4.64236 22.001 6.04131 22.001 7.5Z" fill="white"/>
</svg>
