<svg width="72" height="72" viewBox="0 0 72 72" fill="none" xmlns="http://www.w3.org/2000/svg">
<g clip-path="url(#clip0_142_995)">
<path d="M61.22 49.0401C58.0063 45.5581 54.1064 42.7793 49.7659 40.8787C45.4254 38.9781 40.7384 37.9969 36 37.9969C31.2616 37.9969 26.5746 38.9781 22.2341 40.8787C17.8936 42.7793 13.9937 45.5581 10.78 49.0401C10.2838 49.5887 10.0063 50.3004 10 51.0401V63.0401C10.0105 63.8287 10.3312 64.5816 10.8927 65.1356C11.4542 65.6895 12.2112 66.0001 13 66H59C59.7956 66 60.5587 65.684 61.1213 65.1214C61.6839 64.5588 62 63.7957 62 63V51C61.9841 50.2742 61.7071 49.5784 61.22 49.0401Z" fill="white"/>
<path d="M36 34C43.732 34 50 27.732 50 20C50 12.268 43.732 6 36 6C28.268 6 22 12.268 22 20C22 27.732 28.268 34 36 34Z" fill="white"/>
</g>
<defs>
<clipPath id="clip0_142_995">
<rect width="72" height="72" fill="white"/>
</clipPath>
</defs>
</svg>
